{
    "asset" : {
        "generator" : "Khronos glTF Blender I/O v1.3.48",
        "version" : "2.0"
    },
    "scene" : 0,
    "scenes" : [
        {
            "name" : "Scene",
            "nodes" : [
                0,
                1,
                2,
                3
            ]
        }
    ],
    "nodes" : [
        {
            "mesh" : 0,
            "name" : "Sphere"
        },
        {
            "mesh" : 1,
            "name" : "Sphere.002"
        },
        {
            "mesh" : 2,
            "name" : "Cube"
        },
        {
            "mesh" : 3,
            "name" : "Suzanne"
        }
    ],
    "meshes" : [
        {
            "name" : "Sphere.001",
            "primitives" : [
                {
                    "attributes" : {
                        "POSITION" : 0,
                        "NORMAL" : 1,
                        "TEXCOORD_0" : 2
                    },
                    "indices" : 3
                }
            ]
        },
        {
            "name" : "Sphere.003",
            "primitives" : [
                {
                    "attributes" : {
                        "POSITION" : 4,
                        "NORMAL" : 5,
                        "TEXCOORD_0" : 6
                    },
                    "indices" : 7
                }
            ]
        },
        {
            "name" : "Cube.002",
            "primitives" : [
                {
                    "attributes" : {
                        "POSITION" : 8,
                        "NORMAL" : 9,
                        "TEXCOORD_0" : 10
                    },
                    "indices" : 11
                }
            ]
        },
        {
            "name" : "Suzanne",
            "primitives" : [
                {
                    "attributes" : {
                        "POSITION" : 12,
                        "NORMAL" : 13,
                        "TEXCOORD_0" : 14
                    },
                    "indices" : 15
                }
            ]
        }
    ],
    "accessors" : [
        {
            "bufferView" : 0,
            "componentType" : 5126,
            "count" : 1984,
            "max" : [
                3.0669634342193604,
                3.066962957382202,
                8.47956657409668
            ],
            "min" : [
                -3.066962718963623,
                -3.066962957382202,
                2.3456382751464844
            ],
            "type" : "VEC3"
        },
        {
            "bufferView" : 1,
            "componentType" : 5126,
            "count" : 1984,
            "type" : "VEC3"
        },
        {
            "bufferView" : 2,
            "componentType" : 5126,
            "count" : 1984,
            "type" : "VEC2"
        },
        {
            "bufferView" : 3,
            "componentType" : 5123,
            "count" : 2880,
            "type" : "SCALAR"
        },
        {
            "bufferView" : 4,
            "componentType" : 5126,
            "count" : 559,
            "max" : [
                3.0669634342193604,
                3.066962957382202,
                -2.2862555980682373
            ],
            "min" : [
                -3.066962718963623,
                -3.066962957382202,
                -8.420182228088379
            ],
            "type" : "VEC3"
        },
        {
            "bufferView" : 5,
            "componentType" : 5126,
            "count" : 559,
            "type" : "VEC3"
        },
        {
            "bufferView" : 6,
            "componentType" : 5126,
            "count" : 559,
            "type" : "VEC2"
        },
        {
            "bufferView" : 7,
            "componentType" : 5123,
            "count" : 2880,
            "type" : "SCALAR"
        },
        {
            "bufferView" : 8,
            "componentType" : 5126,
            "count" : 24,
            "max" : [
                -7.204010486602783,
                1.9379626512527466,
                1.9379626512527466
            ],
            "min" : [
                -11.079935073852539,
                -1.9379626512527466,
                -1.9379626512527466
            ],
            "type" : "VEC3"
        },
        {
            "bufferView" : 9,
            "componentType" : 5126,
            "count" : 24,
            "type" : "VEC3"
        },
        {
            "bufferView" : 10,
            "componentType" : 5126,
            "count" : 24,
            "type" : "VEC2"
        },
        {
            "bufferView" : 11,
            "componentType" : 5123,
            "count" : 36,
            "type" : "SCALAR"
        },
        {
            "bufferView" : 12,
            "componentType" : 5126,
            "count" : 7846,
            "max" : [
                8.703935623168945,
                1.8436001539230347,
                2.7647223472595215
            ],
            "min" : [
                5.441754341125488,
                -2.048637628555298,
                -2.640099287033081
            ],
            "type" : "VEC3"
        },
        {
            "bufferView" : 13,
            "componentType" : 5126,
            "count" : 7846,
            "type" : "VEC3"
        },
        {
            "bufferView" : 14,
            "componentType" : 5126,
            "count" : 7846,
            "type" : "VEC2"
        },
        {
            "bufferView" : 15,
            "componentType" : 5123,
            "count" : 11808,
            "type" : "SCALAR"
        }
    ],
    "bufferViews" : [
        {
            "buffer" : 0,
            "byteLength" : 23808,
            "byteOffset" : 0
        },
        {
            "buffer" : 0,
            "byteLength" : 23808,
            "byteOffset" : 23808
        },
        {
            "buffer" : 0,
            "byteLength" : 15872,
            "byteOffset" : 47616
        },
        {
            "buffer" : 0,
            "byteLength" : 5760,
            "byteOffset" : 63488
        },
        {
            "buffer" : 0,
            "byteLength" : 6708,
            "byteOffset" : 69248
        },
        {
            "buffer" : 0,
            "byteLength" : 6708,
            "byteOffset" : 75956
        },
        {
            "buffer" : 0,
            "byteLength" : 4472,
            "byteOffset" : 82664
        },
        {
            "buffer" : 0,
            "byteLength" : 5760,
            "byteOffset" : 87136
        },
        {
            "buffer" : 0,
            "byteLength" : 288,
            "byteOffset" : 92896
        },
        {
            "buffer" : 0,
            "byteLength" : 288,
            "byteOffset" : 93184
        },
        {
            "buffer" : 0,
            "byteLength" : 192,
            "byteOffset" : 93472
        },
        {
            "buffer" : 0,
            "byteLength" : 72,
            "byteOffset" : 93664
        },
        {
            "buffer" : 0,
            "byteLength" : 94152,
            "byteOffset" : 93736
        },
        {
            "buffer" : 0,
            "byteLength" : 94152,
            "byteOffset" : 187888
        },
        {
            "buffer" : 0,
            "byteLength" : 62768,
            "byteOffset" : 282040
        },
        {
            "buffer" : 0,
            "byteLength" : 23616,
            "byteOffset" : 344808
        }
    ],
    "buffers" : [
        {
            "byteLength" : 368424,
            "uri" : "data:application/octet-stream;base64,"
        }
    ]
}
